<svg xmlns="http://www.w3.org/2000/svg" xmlns:xlink="http://www.w3.org/1999/xlink" width="1080" zoomAndPan="magnify" viewBox="0 0 810 262.499992" height="350" preserveAspectRatio="xMidYMid meet" version="1.0"><defs><g/><clipPath id="7855f2f6a3"><path d="M 0.769531 0 L 809.230469 0 L 809.230469 262 L 0.769531 262 Z M 0.769531 0 " clip-rule="nonzero"/></clipPath></defs><g clip-path="url(#7855f2f6a3)"><path fill="#ffffff" d="M 0.769531 0 L 809.230469 0 L 809.230469 262 L 0.769531 262 Z M 0.769531 0 " fill-opacity="1" fill-rule="nonzero"/><path fill="#ffffff" d="M 0.769531 0 L 809.230469 0 L 809.230469 262 L 0.769531 262 Z M 0.769531 0 " fill-opacity="1" fill-rule="nonzero"/></g><g fill="#292017" fill-opacity="0.1804"><g transform="translate(65.724135, 115.223615)"><g><path d="M 19.75 -30.828125 L 3.859375 -19.265625 C 5.703125 -15.085938 8.425781 -11.289062 12.03125 -7.875 C 15.644531 -4.46875 19.921875 -1.785156 24.859375 0.171875 C 29.796875 2.140625 35.15625 3.125 40.9375 3.125 C 45.03125 3.125 49.039062 2.539062 52.96875 1.375 C 56.90625 0.21875 60.421875 -1.5 63.515625 -3.78125 C 66.609375 -6.070312 69.054688 -8.941406 70.859375 -12.390625 C 72.660156 -15.847656 73.5625 -19.828125 73.5625 -24.328125 C 73.5625 -27.691406 73.039062 -30.738281 72 -33.46875 C 70.957031 -36.195312 69.472656 -38.625 67.546875 -40.75 C 65.617188 -42.882812 63.347656 -44.734375 60.734375 -46.296875 C 58.128906 -47.859375 55.265625 -49.203125 52.140625 -50.328125 C 48.523438 -51.609375 45.332031 -52.789062 42.5625 -53.875 C 39.789062 -54.957031 37.625 -56.117188 36.0625 -57.359375 C 34.5 -58.609375 33.71875 -60.160156 33.71875 -62.015625 C 33.71875 -63.617188 34.398438 -64.898438 35.765625 -65.859375 C 37.128906 -66.828125 38.972656 -67.3125 41.296875 -67.3125 C 43.140625 -67.3125 44.941406 -66.945312 46.703125 -66.21875 C 48.472656 -65.5 50.140625 -64.476562 51.703125 -63.15625 C 53.273438 -61.832031 54.664062 -60.164062 55.875 -58.15625 L 73.453125 -67.90625 C 71.921875 -70.800781 69.75 -73.671875 66.9375 -76.515625 C 64.132812 -79.367188 60.566406 -81.738281 56.234375 -83.625 C 51.898438 -85.507812 46.757812 -86.453125 40.8125 -86.453125 C 35.113281 -86.453125 29.9375 -85.488281 25.28125 -83.5625 C 20.625 -81.632812 16.890625 -78.84375 14.078125 -75.1875 C 11.273438 -71.539062 9.875 -67.066406 9.875 -61.765625 C 9.875 -57.585938 10.65625 -53.972656 12.21875 -50.921875 C 13.78125 -47.878906 15.742188 -45.3125 18.109375 -43.21875 C 20.484375 -41.132812 22.953125 -39.429688 25.515625 -38.109375 C 28.085938 -36.785156 30.421875 -35.722656 32.515625 -34.921875 C 36.765625 -33.316406 40.070312 -31.953125 42.4375 -30.828125 C 44.8125 -29.703125 46.476562 -28.597656 47.4375 -27.515625 C 48.40625 -26.429688 48.890625 -25.085938 48.890625 -23.484375 C 48.890625 -21.234375 48.046875 -19.523438 46.359375 -18.359375 C 44.671875 -17.191406 42.539062 -16.609375 39.96875 -16.609375 C 37.320312 -16.609375 34.753906 -17.171875 32.265625 -18.296875 C 29.773438 -19.421875 27.488281 -21.046875 25.40625 -23.171875 C 23.320312 -25.304688 21.4375 -27.859375 19.75 -30.828125 Z M 19.75 -30.828125 "/></g></g></g><g fill="#292017" fill-opacity="0.1804"><g transform="translate(143.745634, 115.223615)"><g><path d="M 0.234375 -63.453125 L 23.84375 -63.453125 L 23.84375 0 L 47.203125 0 L 47.203125 -63.453125 L 70.796875 -63.453125 L 70.796875 -84.28125 L 0.234375 -84.28125 Z M 0.234375 -63.453125 "/></g></g></g><g fill="#292017" fill-opacity="0.1804"><g transform="translate(214.783723, 115.223615)"><g><path d="M 24.5625 0 L 67.0625 0 L 67.0625 -18.90625 L 24.5625 -18.90625 Z M 24.5625 -65.375 L 67.0625 -65.375 L 67.0625 -84.28125 L 24.5625 -84.28125 Z M 24.5625 -34.671875 L 64.65625 -34.671875 L 64.65625 -52.984375 L 24.5625 -52.984375 Z M 8.671875 -84.28125 L 8.671875 0 L 31.0625 0 L 31.0625 -84.28125 Z M 8.671875 -84.28125 "/></g></g></g><g fill="#292017" fill-opacity="0.1804"><g transform="translate(289.313516, 115.223615)"><g><path d="M 8.671875 -84.28125 L 8.671875 0 L 32.03125 0 L 32.03125 -84.28125 Z M 23.59375 -65.375 L 39.859375 -65.375 C 43.546875 -65.375 46.390625 -64.570312 48.390625 -62.96875 C 50.398438 -61.363281 51.40625 -59.078125 51.40625 -56.109375 C 51.40625 -53.054688 50.398438 -50.726562 48.390625 -49.125 C 46.390625 -47.519531 43.546875 -46.71875 39.859375 -46.71875 L 23.59375 -46.71875 L 23.59375 -27.9375 L 39.859375 -27.9375 C 47.554688 -27.9375 53.914062 -29.054688 58.9375 -31.296875 C 63.957031 -33.546875 67.691406 -36.796875 70.140625 -41.046875 C 72.585938 -45.304688 73.8125 -50.328125 73.8125 -56.109375 C 73.8125 -61.972656 72.585938 -66.988281 70.140625 -71.15625 C 67.691406 -75.332031 63.957031 -78.5625 58.9375 -80.84375 C 53.914062 -83.132812 47.554688 -84.28125 39.859375 -84.28125 L 23.59375 -84.28125 Z M 23.59375 -65.375 "/></g></g></g><g fill="#292017" fill-opacity="0.1804"><g transform="translate(366.973806, 115.223615)"><g><path d="M 14.328125 -33.59375 L 79.828125 -33.59375 L 79.828125 -54.421875 L 14.328125 -54.421875 Z M 65.265625 -84.28125 L 65.265625 0 L 88.625 0 L 88.625 -84.28125 Z M 8.671875 -84.28125 L 8.671875 0 L 32.03125 0 L 32.03125 -84.28125 Z M 8.671875 -84.28125 "/></g></g></g><g fill="#292017" fill-opacity="0.1804"><g transform="translate(464.259882, 115.223615)"><g><path d="M 23.484375 -13.609375 L 68.03125 -13.609375 L 67.421875 -30.828125 L 24.203125 -30.828125 Z M 45.515625 -49.734375 L 56.71875 -24.4375 L 55.390625 -18.421875 L 65.015625 0 L 91.515625 0 L 45.515625 -89.9375 L -0.359375 0 L 26.125 0 L 35.875 -19.265625 L 34.4375 -24.4375 Z M 45.515625 -49.734375 "/></g></g></g><g fill="#292017" fill-opacity="0.1804"><g transform="translate(555.405357, 115.223615)"><g><path d="M 65.140625 -84.28125 L 65.140625 -41.421875 L 8.671875 -88.5 L 8.671875 0 L 31.0625 0 L 31.0625 -42.859375 L 87.53125 4.21875 L 87.53125 -84.28125 Z M 65.140625 -84.28125 "/></g></g></g><g fill="#292017" fill-opacity="0.1804"><g transform="translate(651.607773, 115.223615)"><g><path d="M 8.671875 -84.28125 L 8.671875 0 L 32.515625 0 L 32.515625 -84.28125 Z M 8.671875 -84.28125 "/></g></g></g><g fill="#292017" fill-opacity="0.1804"><g transform="translate(692.785791, 115.223615)"><g><path d="M 24.5625 0 L 67.0625 0 L 67.0625 -18.90625 L 24.5625 -18.90625 Z M 24.5625 -65.375 L 67.0625 -65.375 L 67.0625 -84.28125 L 24.5625 -84.28125 Z M 24.5625 -34.671875 L 64.65625 -34.671875 L 64.65625 -52.984375 L 24.5625 -52.984375 Z M 8.671875 -84.28125 L 8.671875 0 L 31.0625 0 L 31.0625 -84.28125 Z M 8.671875 -84.28125 "/></g></g></g><g fill="#292017" fill-opacity="0.1804"><g transform="translate(25.7456, 248.469803)"><g><path d="M 23.484375 -13.609375 L 68.03125 -13.609375 L 67.421875 -30.828125 L 24.203125 -30.828125 Z M 45.515625 -49.734375 L 56.71875 -24.4375 L 55.390625 -18.421875 L 65.015625 0 L 91.515625 0 L 45.515625 -89.9375 L -0.359375 0 L 26.125 0 L 35.875 -19.265625 L 34.4375 -24.4375 Z M 45.515625 -49.734375 "/></g></g></g><g fill="#292017" fill-opacity="0.1804"><g transform="translate(116.891075, 248.469803)"><g><path d="M 8.671875 -84.28125 L 8.671875 0 L 32.984375 0 L 32.984375 -84.28125 Z M 60.328125 -84.28125 L 26.25 -44.0625 L 61.046875 0 L 89.34375 0 L 54.0625 -44.796875 L 87.53125 -84.28125 Z M 60.328125 -84.28125 "/></g></g></g><g fill="#292017" fill-opacity="0.1804"><g transform="translate(205.869288, 248.469803)"><g><path d="M 23.484375 -13.609375 L 68.03125 -13.609375 L 67.421875 -30.828125 L 24.203125 -30.828125 Z M 45.515625 -49.734375 L 56.71875 -24.4375 L 55.390625 -18.421875 L 65.015625 0 L 91.515625 0 L 45.515625 -89.9375 L -0.359375 0 L 26.125 0 L 35.875 -19.265625 L 34.4375 -24.4375 Z M 45.515625 -49.734375 "/></g></g></g><g fill="#292017" fill-opacity="0.1804"><g transform="translate(297.014751, 248.469803)"><g><path d="M 8.671875 -84.28125 L 8.671875 0 L 32.984375 0 L 32.984375 -84.28125 Z M 60.328125 -84.28125 L 26.25 -44.0625 L 61.046875 0 L 89.34375 0 L 54.0625 -44.796875 L 87.53125 -84.28125 Z M 60.328125 -84.28125 "/></g></g></g><g fill="#292017" fill-opacity="0.1804"><g transform="translate(385.992976, 248.469803)"><g><path d="M 23.484375 -13.609375 L 68.03125 -13.609375 L 67.421875 -30.828125 L 24.203125 -30.828125 Z M 45.515625 -49.734375 L 56.71875 -24.4375 L 55.390625 -18.421875 L 65.015625 0 L 91.515625 0 L 45.515625 -89.9375 L -0.359375 0 L 26.125 0 L 35.875 -19.265625 L 34.4375 -24.4375 Z M 45.515625 -49.734375 "/></g></g></g><g fill="#292017" fill-opacity="0.1804"><g transform="translate(477.138428, 248.469803)"><g><path d="M 26 -41.171875 L 42.5 -41.171875 C 48.519531 -41.171875 53.878906 -41.992188 58.578125 -43.640625 C 63.273438 -45.285156 66.988281 -47.734375 69.71875 -50.984375 C 72.445312 -54.242188 73.8125 -58.160156 73.8125 -62.734375 C 73.8125 -67.546875 72.445312 -71.535156 69.71875 -74.703125 C 66.988281 -77.878906 63.273438 -80.269531 58.578125 -81.875 C 53.878906 -83.476562 48.519531 -84.28125 42.5 -84.28125 L 8.671875 -84.28125 L 8.671875 0 L 44.671875 0 C 51.734375 0 57.789062 -0.78125 62.84375 -2.34375 C 67.90625 -3.914062 71.800781 -6.425781 74.53125 -9.875 C 77.257812 -13.320312 78.625 -17.859375 78.625 -23.484375 C 78.625 -27.816406 77.640625 -31.523438 75.671875 -34.609375 C 73.703125 -37.703125 71.070312 -40.234375 67.78125 -42.203125 C 64.5 -44.171875 60.847656 -45.613281 56.828125 -46.53125 C 52.816406 -47.457031 48.765625 -47.921875 44.671875 -47.921875 L 26 -47.921875 L 26 -35.15625 L 41.78125 -35.15625 C 43.550781 -35.15625 45.175781 -35.035156 46.65625 -34.796875 C 48.144531 -34.554688 49.46875 -34.113281 50.625 -33.46875 C 51.789062 -32.832031 52.691406 -31.988281 53.328125 -30.9375 C 53.972656 -29.894531 54.296875 -28.570312 54.296875 -26.96875 C 54.296875 -24.476562 53.734375 -22.570312 52.609375 -21.25 C 51.492188 -19.925781 49.988281 -19.019531 48.09375 -18.53125 C 46.207031 -18.050781 44.101562 -17.8125 41.78125 -17.8125 L 32.03125 -17.8125 L 32.03125 -66.46875 L 39.609375 -66.46875 C 42.828125 -66.46875 45.273438 -65.863281 46.953125 -64.65625 C 48.640625 -63.457031 49.484375 -61.570312 49.484375 -59 C 49.484375 -57.3125 49.101562 -55.863281 48.34375 -54.65625 C 47.582031 -53.457031 46.476562 -52.535156 45.03125 -51.890625 C 43.582031 -51.253906 41.773438 -50.9375 39.609375 -50.9375 L 26 -50.9375 Z M 26 -41.171875 "/></g></g></g><g fill="#292017" fill-opacity="0.1804"><g transform="translate(560.818905, 248.469803)"><g><path d="M 28.53125 -42.140625 C 28.53125 -46.710938 29.410156 -50.722656 31.171875 -54.171875 C 32.941406 -57.628906 35.429688 -60.34375 38.640625 -62.3125 C 41.859375 -64.28125 45.632812 -65.265625 49.96875 -65.265625 C 54.539062 -65.265625 58.410156 -64.28125 61.578125 -62.3125 C 64.753906 -60.34375 67.1875 -57.628906 68.875 -54.171875 C 70.5625 -50.722656 71.40625 -46.710938 71.40625 -42.140625 C 71.40625 -37.648438 70.519531 -33.65625 68.75 -30.15625 C 66.988281 -26.664062 64.519531 -23.9375 61.34375 -21.96875 C 58.175781 -20.007812 54.382812 -19.03125 49.96875 -19.03125 C 45.632812 -19.03125 41.859375 -20.007812 38.640625 -21.96875 C 35.429688 -23.9375 32.941406 -26.664062 31.171875 -30.15625 C 29.410156 -33.65625 28.53125 -37.648438 28.53125 -42.140625 Z M 3.859375 -42.140625 C 3.859375 -35.554688 4.976562 -29.492188 7.21875 -23.953125 C 9.46875 -18.421875 12.660156 -13.625 16.796875 -9.5625 C 20.929688 -5.507812 25.804688 -2.378906 31.421875 -0.171875 C 37.046875 2.023438 43.226562 3.125 49.96875 3.125 C 56.707031 3.125 62.90625 2.023438 68.5625 -0.171875 C 74.226562 -2.378906 79.109375 -5.507812 83.203125 -9.5625 C 87.296875 -13.625 90.460938 -18.421875 92.703125 -23.953125 C 94.953125 -29.492188 96.078125 -35.554688 96.078125 -42.140625 C 96.078125 -48.804688 94.929688 -54.847656 92.640625 -60.265625 C 90.359375 -65.679688 87.128906 -70.332031 82.953125 -74.21875 C 78.785156 -78.113281 73.910156 -81.125 68.328125 -83.25 C 62.753906 -85.382812 56.632812 -86.453125 49.96875 -86.453125 C 43.46875 -86.453125 37.425781 -85.382812 31.84375 -83.25 C 26.269531 -81.125 21.394531 -78.113281 17.21875 -74.21875 C 13.039062 -70.332031 9.769531 -65.679688 7.40625 -60.265625 C 5.039062 -54.847656 3.859375 -48.804688 3.859375 -42.140625 Z M 3.859375 -42.140625 "/></g></g></g><g fill="#292017" fill-opacity="0.1804"><g transform="translate(657.141622, 248.469803)"><g><path d="M 0.234375 -63.453125 L 23.84375 -63.453125 L 23.84375 0 L 47.203125 0 L 47.203125 -63.453125 L 70.796875 -63.453125 L 70.796875 -84.28125 L 0.234375 -84.28125 Z M 0.234375 -63.453125 "/></g></g></g><g fill="#292017" fill-opacity="0.1804"><g transform="translate(716.138891, 248.469803)"><g><path d="M 23.484375 -13.609375 L 68.03125 -13.609375 L 67.421875 -30.828125 L 24.203125 -30.828125 Z M 45.515625 -49.734375 L 56.71875 -24.4375 L 55.390625 -18.421875 L 65.015625 0 L 91.515625 0 L 45.515625 -89.9375 L -0.359375 0 L 26.125 0 L 35.875 -19.265625 L 34.4375 -24.4375 Z M 45.515625 -49.734375 "/></g></g></g><g fill="#5f7e3a" fill-opacity="1"><g transform="translate(54.194315, 105.548947)"><g><path d="M 19.75 -30.828125 L 3.859375 -19.265625 C 5.703125 -15.085938 8.425781 -11.289062 12.03125 -7.875 C 15.644531 -4.46875 19.921875 -1.785156 24.859375 0.171875 C 29.796875 2.140625 35.15625 3.125 40.9375 3.125 C 45.03125 3.125 49.039062 2.539062 52.96875 1.375 C 56.90625 0.21875 60.421875 -1.5 63.515625 -3.78125 C 66.609375 -6.070312 69.054688 -8.941406 70.859375 -12.390625 C 72.660156 -15.847656 73.5625 -19.828125 73.5625 -24.328125 C 73.5625 -27.691406 73.039062 -30.738281 72 -33.46875 C 70.957031 -36.195312 69.472656 -38.625 67.546875 -40.75 C 65.617188 -42.882812 63.347656 -44.734375 60.734375 -46.296875 C 58.128906 -47.859375 55.265625 -49.203125 52.140625 -50.328125 C 48.523438 -51.609375 45.332031 -52.789062 42.5625 -53.875 C 39.789062 -54.957031 37.625 -56.117188 36.0625 -57.359375 C 34.5 -58.609375 33.71875 -60.160156 33.71875 -62.015625 C 33.71875 -63.617188 34.398438 -64.898438 35.765625 -65.859375 C 37.128906 -66.828125 38.972656 -67.3125 41.296875 -67.3125 C 43.140625 -67.3125 44.941406 -66.945312 46.703125 -66.21875 C 48.472656 -65.5 50.140625 -64.476562 51.703125 -63.15625 C 53.273438 -61.832031 54.664062 -60.164062 55.875 -58.15625 L 73.453125 -67.90625 C 71.921875 -70.800781 69.75 -73.671875 66.9375 -76.515625 C 64.132812 -79.367188 60.566406 -81.738281 56.234375 -83.625 C 51.898438 -85.507812 46.757812 -86.453125 40.8125 -86.453125 C 35.113281 -86.453125 29.9375 -85.488281 25.28125 -83.5625 C 20.625 -81.632812 16.890625 -78.84375 14.078125 -75.1875 C 11.273438 -71.539062 9.875 -67.066406 9.875 -61.765625 C 9.875 -57.585938 10.65625 -53.972656 12.21875 -50.921875 C 13.78125 -47.878906 15.742188 -45.3125 18.109375 -43.21875 C 20.484375 -41.132812 22.953125 -39.429688 25.515625 -38.109375 C 28.085938 -36.785156 30.421875 -35.722656 32.515625 -34.921875 C 36.765625 -33.316406 40.070312 -31.953125 42.4375 -30.828125 C 44.8125 -29.703125 46.476562 -28.597656 47.4375 -27.515625 C 48.40625 -26.429688 48.890625 -25.085938 48.890625 -23.484375 C 48.890625 -21.234375 48.046875 -19.523438 46.359375 -18.359375 C 44.671875 -17.191406 42.539062 -16.609375 39.96875 -16.609375 C 37.320312 -16.609375 34.753906 -17.171875 32.265625 -18.296875 C 29.773438 -19.421875 27.488281 -21.046875 25.40625 -23.171875 C 23.320312 -25.304688 21.4375 -27.859375 19.75 -30.828125 Z M 19.75 -30.828125 "/></g></g></g><g fill="#5f7e3a" fill-opacity="1"><g transform="translate(132.215814, 105.548947)"><g><path d="M 0.234375 -63.453125 L 23.84375 -63.453125 L 23.84375 0 L 47.203125 0 L 47.203125 -63.453125 L 70.796875 -63.453125 L 70.796875 -84.28125 L 0.234375 -84.28125 Z M 0.234375 -63.453125 "/></g></g></g><g fill="#5f7e3a" fill-opacity="1"><g transform="translate(203.253903, 105.548947)"><g><path d="M 24.5625 0 L 67.0625 0 L 67.0625 -18.90625 L 24.5625 -18.90625 Z M 24.5625 -65.375 L 67.0625 -65.375 L 67.0625 -84.28125 L 24.5625 -84.28125 Z M 24.5625 -34.671875 L 64.65625 -34.671875 L 64.65625 -52.984375 L 24.5625 -52.984375 Z M 8.671875 -84.28125 L 8.671875 0 L 31.0625 0 L 31.0625 -84.28125 Z M 8.671875 -84.28125 "/></g></g></g><g fill="#5f7e3a" fill-opacity="1"><g transform="translate(277.783696, 105.548947)"><g><path d="M 8.671875 -84.28125 L 8.671875 0 L 32.03125 0 L 32.03125 -84.28125 Z M 23.59375 -65.375 L 39.859375 -65.375 C 43.546875 -65.375 46.390625 -64.570312 48.390625 -62.96875 C 50.398438 -61.363281 51.40625 -59.078125 51.40625 -56.109375 C 51.40625 -53.054688 50.398438 -50.726562 48.390625 -49.125 C 46.390625 -47.519531 43.546875 -46.71875 39.859375 -46.71875 L 23.59375 -46.71875 L 23.59375 -27.9375 L 39.859375 -27.9375 C 47.554688 -27.9375 53.914062 -29.054688 58.9375 -31.296875 C 63.957031 -33.546875 67.691406 -36.796875 70.140625 -41.046875 C 72.585938 -45.304688 73.8125 -50.328125 73.8125 -56.109375 C 73.8125 -61.972656 72.585938 -66.988281 70.140625 -71.15625 C 67.691406 -75.332031 63.957031 -78.5625 58.9375 -80.84375 C 53.914062 -83.132812 47.554688 -84.28125 39.859375 -84.28125 L 23.59375 -84.28125 Z M 23.59375 -65.375 "/></g></g></g><g fill="#5f7e3a" fill-opacity="1"><g transform="translate(355.443986, 105.548947)"><g><path d="M 14.328125 -33.59375 L 79.828125 -33.59375 L 79.828125 -54.421875 L 14.328125 -54.421875 Z M 65.265625 -84.28125 L 65.265625 0 L 88.625 0 L 88.625 -84.28125 Z M 8.671875 -84.28125 L 8.671875 0 L 32.03125 0 L 32.03125 -84.28125 Z M 8.671875 -84.28125 "/></g></g></g><g fill="#5f7e3a" fill-opacity="1"><g transform="translate(452.730062, 105.548947)"><g><path d="M 23.484375 -13.609375 L 68.03125 -13.609375 L 67.421875 -30.828125 L 24.203125 -30.828125 Z M 45.515625 -49.734375 L 56.71875 -24.4375 L 55.390625 -18.421875 L 65.015625 0 L 91.515625 0 L 45.515625 -89.9375 L -0.359375 0 L 26.125 0 L 35.875 -19.265625 L 34.4375 -24.4375 Z M 45.515625 -49.734375 "/></g></g></g><g fill="#5f7e3a" fill-opacity="1"><g transform="translate(543.875537, 105.548947)"><g><path d="M 65.140625 -84.28125 L 65.140625 -41.421875 L 8.671875 -88.5 L 8.671875 0 L 31.0625 0 L 31.0625 -42.859375 L 87.53125 4.21875 L 87.53125 -84.28125 Z M 65.140625 -84.28125 "/></g></g></g><g fill="#5f7e3a" fill-opacity="1"><g transform="translate(640.077953, 105.548947)"><g><path d="M 8.671875 -84.28125 L 8.671875 0 L 32.515625 0 L 32.515625 -84.28125 Z M 8.671875 -84.28125 "/></g></g></g><g fill="#5f7e3a" fill-opacity="1"><g transform="translate(681.25597, 105.548947)"><g><path d="M 24.5625 0 L 67.0625 0 L 67.0625 -18.90625 L 24.5625 -18.90625 Z M 24.5625 -65.375 L 67.0625 -65.375 L 67.0625 -84.28125 L 24.5625 -84.28125 Z M 24.5625 -34.671875 L 64.65625 -34.671875 L 64.65625 -52.984375 L 24.5625 -52.984375 Z M 8.671875 -84.28125 L 8.671875 0 L 31.0625 0 L 31.0625 -84.28125 Z M 8.671875 -84.28125 "/></g></g></g><g fill="#5f7e3a" fill-opacity="1"><g transform="translate(14.21578, 238.795136)"><g><path d="M 23.484375 -13.609375 L 68.03125 -13.609375 L 67.421875 -30.828125 L 24.203125 -30.828125 Z M 45.515625 -49.734375 L 56.71875 -24.4375 L 55.390625 -18.421875 L 65.015625 0 L 91.515625 0 L 45.515625 -89.9375 L -0.359375 0 L 26.125 0 L 35.875 -19.265625 L 34.4375 -24.4375 Z M 45.515625 -49.734375 "/></g></g></g><g fill="#5f7e3a" fill-opacity="1"><g transform="translate(105.361255, 238.795136)"><g><path d="M 8.671875 -84.28125 L 8.671875 0 L 32.984375 0 L 32.984375 -84.28125 Z M 60.328125 -84.28125 L 26.25 -44.0625 L 61.046875 0 L 89.34375 0 L 54.0625 -44.796875 L 87.53125 -84.28125 Z M 60.328125 -84.28125 "/></g></g></g><g fill="#5f7e3a" fill-opacity="1"><g transform="translate(194.339468, 238.795136)"><g><path d="M 23.484375 -13.609375 L 68.03125 -13.609375 L 67.421875 -30.828125 L 24.203125 -30.828125 Z M 45.515625 -49.734375 L 56.71875 -24.4375 L 55.390625 -18.421875 L 65.015625 0 L 91.515625 0 L 45.515625 -89.9375 L -0.359375 0 L 26.125 0 L 35.875 -19.265625 L 34.4375 -24.4375 Z M 45.515625 -49.734375 "/></g></g></g><g fill="#5f7e3a" fill-opacity="1"><g transform="translate(285.484931, 238.795136)"><g><path d="M 8.671875 -84.28125 L 8.671875 0 L 32.984375 0 L 32.984375 -84.28125 Z M 60.328125 -84.28125 L 26.25 -44.0625 L 61.046875 0 L 89.34375 0 L 54.0625 -44.796875 L 87.53125 -84.28125 Z M 60.328125 -84.28125 "/></g></g></g><g fill="#5f7e3a" fill-opacity="1"><g transform="translate(374.463155, 238.795136)"><g><path d="M 23.484375 -13.609375 L 68.03125 -13.609375 L 67.421875 -30.828125 L 24.203125 -30.828125 Z M 45.515625 -49.734375 L 56.71875 -24.4375 L 55.390625 -18.421875 L 65.015625 0 L 91.515625 0 L 45.515625 -89.9375 L -0.359375 0 L 26.125 0 L 35.875 -19.265625 L 34.4375 -24.4375 Z M 45.515625 -49.734375 "/></g></g></g><g fill="#5f7e3a" fill-opacity="1"><g transform="translate(465.608608, 238.795136)"><g><path d="M 26 -41.171875 L 42.5 -41.171875 C 48.519531 -41.171875 53.878906 -41.992188 58.578125 -43.640625 C 63.273438 -45.285156 66.988281 -47.734375 69.71875 -50.984375 C 72.445312 -54.242188 73.8125 -58.160156 73.8125 -62.734375 C 73.8125 -67.546875 72.445312 -71.535156 69.71875 -74.703125 C 66.988281 -77.878906 63.273438 -80.269531 58.578125 -81.875 C 53.878906 -83.476562 48.519531 -84.28125 42.5 -84.28125 L 8.671875 -84.28125 L 8.671875 0 L 44.671875 0 C 51.734375 0 57.789062 -0.78125 62.84375 -2.34375 C 67.90625 -3.914062 71.800781 -6.425781 74.53125 -9.875 C 77.257812 -13.320312 78.625 -17.859375 78.625 -23.484375 C 78.625 -27.816406 77.640625 -31.523438 75.671875 -34.609375 C 73.703125 -37.703125 71.070312 -40.234375 67.78125 -42.203125 C 64.5 -44.171875 60.847656 -45.613281 56.828125 -46.53125 C 52.816406 -47.457031 48.765625 -47.921875 44.671875 -47.921875 L 26 -47.921875 L 26 -35.15625 L 41.78125 -35.15625 C 43.550781 -35.15625 45.175781 -35.035156 46.65625 -34.796875 C 48.144531 -34.554688 49.46875 -34.113281 50.625 -33.46875 C 51.789062 -32.832031 52.691406 -31.988281 53.328125 -30.9375 C 53.972656 -29.894531 54.296875 -28.570312 54.296875 -26.96875 C 54.296875 -24.476562 53.734375 -22.570312 52.609375 -21.25 C 51.492188 -19.925781 49.988281 -19.019531 48.09375 -18.53125 C 46.207031 -18.050781 44.101562 -17.8125 41.78125 -17.8125 L 32.03125 -17.8125 L 32.03125 -66.46875 L 39.609375 -66.46875 C 42.828125 -66.46875 45.273438 -65.863281 46.953125 -64.65625 C 48.640625 -63.457031 49.484375 -61.570312 49.484375 -59 C 49.484375 -57.3125 49.101562 -55.863281 48.34375 -54.65625 C 47.582031 -53.457031 46.476562 -52.535156 45.03125 -51.890625 C 43.582031 -51.253906 41.773438 -50.9375 39.609375 -50.9375 L 26 -50.9375 Z M 26 -41.171875 "/></g></g></g><g fill="#5f7e3a" fill-opacity="1"><g transform="translate(549.289085, 238.795136)"><g><path d="M 28.53125 -42.140625 C 28.53125 -46.710938 29.410156 -50.722656 31.171875 -54.171875 C 32.941406 -57.628906 35.429688 -60.34375 38.640625 -62.3125 C 41.859375 -64.28125 45.632812 -65.265625 49.96875 -65.265625 C 54.539062 -65.265625 58.410156 -64.28125 61.578125 -62.3125 C 64.753906 -60.34375 67.1875 -57.628906 68.875 -54.171875 C 70.5625 -50.722656 71.40625 -46.710938 71.40625 -42.140625 C 71.40625 -37.648438 70.519531 -33.65625 68.75 -30.15625 C 66.988281 -26.664062 64.519531 -23.9375 61.34375 -21.96875 C 58.175781 -20.007812 54.382812 -19.03125 49.96875 -19.03125 C 45.632812 -19.03125 41.859375 -20.007812 38.640625 -21.96875 C 35.429688 -23.9375 32.941406 -26.664062 31.171875 -30.15625 C 29.410156 -33.65625 28.53125 -37.648438 28.53125 -42.140625 Z M 3.859375 -42.140625 C 3.859375 -35.554688 4.976562 -29.492188 7.21875 -23.953125 C 9.46875 -18.421875 12.660156 -13.625 16.796875 -9.5625 C 20.929688 -5.507812 25.804688 -2.378906 31.421875 -0.171875 C 37.046875 2.023438 43.226562 3.125 49.96875 3.125 C 56.707031 3.125 62.90625 2.023438 68.5625 -0.171875 C 74.226562 -2.378906 79.109375 -5.507812 83.203125 -9.5625 C 87.296875 -13.625 90.460938 -18.421875 92.703125 -23.953125 C 94.953125 -29.492188 96.078125 -35.554688 96.078125 -42.140625 C 96.078125 -48.804688 94.929688 -54.847656 92.640625 -60.265625 C 90.359375 -65.679688 87.128906 -70.332031 82.953125 -74.21875 C 78.785156 -78.113281 73.910156 -81.125 68.328125 -83.25 C 62.753906 -85.382812 56.632812 -86.453125 49.96875 -86.453125 C 43.46875 -86.453125 37.425781 -85.382812 31.84375 -83.25 C 26.269531 -81.125 21.394531 -78.113281 17.21875 -74.21875 C 13.039062 -70.332031 9.769531 -65.679688 7.40625 -60.265625 C 5.039062 -54.847656 3.859375 -48.804688 3.859375 -42.140625 Z M 3.859375 -42.140625 "/></g></g></g><g fill="#5f7e3a" fill-opacity="1"><g transform="translate(645.611801, 238.795136)"><g><path d="M 0.234375 -63.453125 L 23.84375 -63.453125 L 23.84375 0 L 47.203125 0 L 47.203125 -63.453125 L 70.796875 -63.453125 L 70.796875 -84.28125 L 0.234375 -84.28125 Z M 0.234375 -63.453125 "/></g></g></g><g fill="#5f7e3a" fill-opacity="1"><g transform="translate(704.609071, 238.795136)"><g><path d="M 23.484375 -13.609375 L 68.03125 -13.609375 L 67.421875 -30.828125 L 24.203125 -30.828125 Z M 45.515625 -49.734375 L 56.71875 -24.4375 L 55.390625 -18.421875 L 65.015625 0 L 91.515625 0 L 45.515625 -89.9375 L -0.359375 0 L 26.125 0 L 35.875 -19.265625 L 34.4375 -24.4375 Z M 45.515625 -49.734375 "/></g></g></g></svg>